<svg xmlns="http://www.w3.org/2000/svg" version="1.1" viewBox="0 0 2011.862 816.382" width="2500" height="1014"><path fill="none" d="M0 .002h2011.862V816.38H0z"/><path d="M1794.272 274.773c-33.357 0-60.571 27.228-60.571 60.585s27.214 60.59 60.571 60.59c33.344 0 60.224-27.233 60.224-60.59s-26.88-60.585-60.224-60.585m0 93.603c-18.387 0-33.012-14.976-33.012-33.018 0-18.026 14.625-32.667 33.012-32.667 18.027 0 32.67 14.64 32.67 32.667 0 18.042-14.643 33.018-32.67 33.018m-221.837-94.951c-13.28 0-26.894 2.728-37.788 7.148-8.84-5.11-17.363-7.148-29.613-7.148-15.315 0-30.959 2.038-47.974 7.822l-3.075 1.019V393.56h30.284v-91.214c6.14-2.038 10.897-2.728 17.034-2.728 14.97 0 19.39 4.782 19.39 20.425v73.517h30.624v-75.554c0-6.804-.337-11.24-1.34-15.315 6.114-2.038 10.89-3.073 16.318-3.073 14.307 0 20.77 6.474 20.77 20.425v73.517h30.296v-75.9c0-14.97-2.391-23.81-9.194-31.319-7.504-8.167-20.091-12.916-35.732-12.916m121.4 96.158c-20.186 0-31.754-12.522-31.754-34.414 0-22.414 11.709-35.26 32.048-35.26 4.228 0 7.802.448 11.188 1.45 0 0 6.266 1.78 11.775 6.097l12.811-21.983c-6.975-5.816-15.21-8.34-17.991-9.061-7.876-2.367-19.406-2.728-19.406-2.728-36.433 0-60.847 25.277-60.847 62.817 0 36.106 23.17 59.415 59.12 59.415 0 0 24.068 1.067 40.23-13.924l-15.092-19.374c-8.183 5.218-13.848 6.965-22.082 6.965m-394.865-95.139c-43.238 0-63.301 19.061-63.301 59.566v59.55h30.96v-59.895c0-20.425 11.577-33.012 29.61-33.012 7.502 0 13.277 1.364 17.363 2.383l7.148-26.883c-11.993-1.725-21.78-1.709-21.78-1.709m137.327 56.165v62.951h-41.516c-28.594 0-41.18-2.048-56.153-11.908-12.948-8.862-20.088-25.535-20.088-47.313 0-29.956 19.733-60.24 63.3-60.24 35.395 0 54.457 19.751 54.457 56.51M1406 333.994c0-22.808-8.855-34.03-26.536-34.03-18.054 0-29.612 13.276-29.612 33.34 0 24.172 11.558 34.743 37.432 34.743H1406zm-187.183-3.401v62.967h-41.18c-28.586 0-41.2-2.048-56.151-11.908-12.942-8.862-20.09-25.535-20.09-47.313 0-29.956 19.735-60.24 63.3-60.24 35.396 0 54.121 19.751 54.121 56.494m-31.312 3.401c0-23.137-8.168-34.03-26.203-34.03s-29.612 13.276-29.612 33.34c0 24.172 11.577 34.743 37.425 34.743h18.39zM384.51 326.86h8.902l-4.45-11.537zm-9.288 11.322 12.962-30.852h3.37l12.963 30.852h-6.784l-2.982-7.735H383.13l-3.025 7.735zm31.152-1.426-.518-5.575q4.45 3.76 9.376 3.76 2.809-.001 4.234-1.103c1.82-1.403 1.817-3.877.497-5.444-1.124-1.332-3.082-2.147-7.756-4.386q-6.22-2.982-6.221-8.684 0-3.975 2.721-6.33c3.983-3.445 10.553-2.131 11.213-2.01q1.88.346 3.65 1.08l.519 5.315q-2.118-1.512-3.953-2.204c-4.21-1.582-8.707-.514-8.707 3.113 0 1.766 1.141 2.984 3.5 4.189 5.424 2.737 7.978 3.803 9.917 6.245 2.373 2.99 2.496 8.784-1.317 11.796q-2.983 2.356-8.253 2.355c-4.607 0-7.692-1.438-8.902-2.117m29.382 1.426v-27.094c-2.532.05-5.198.233-9.247.736l.346-4.494h23.72l.348 4.494c-5.116-.636-7.87-.708-9.29-.736v27.094zm30.85-3.069c4.8 0 9.16-3.842 9.16-12.358 0-.706.176-7.543-4.299-10.845q-2.053-1.512-4.86-1.512c-6.408 0-9.16 5.95-9.16 12.357 0 8.463 4.335 12.358 9.16 12.358m0 3.76c-9.21 0-15.555-6.684-15.555-16.118 0-9.551 6.41-16.116 15.555-16.116 9.123 0 15.556 6.542 15.556 16.116 0 9.434-6.344 16.118-15.556 16.118m20.308-.691V307.33h3.197l18.45 20.956V307.33h4.365v30.852h-3.241l-18.407-21.001v21zm42.445 0 3.457-30.852h3.154l10.975 21.518 10.586-21.518h3.153l3.458 30.852h-6.265l-1.772-19.056-8.642 17.802h-2.852l-8.771-17.587-1.772 18.84zm46.707-11.322h8.901l-4.45-11.537zm-9.29 11.322 12.963-30.852h3.37l12.963 30.852h-6.784l-2.982-7.735h-11.622l-3.025 7.735zm37.937-16.81q1.253.217 2.464.217c5.028 0 6.265-2.892 6.265-5.401 0-3.784-2.676-5.358-6.525-5.358q-1.038 0-2.204.129zm-5.876 16.81V307.59c1.715-.214 3.777-.39 6.914-.39q4.147 0 7.215.972c2.969.942 6.482 3.065 6.482 7.713q0 2.897-1.794 5.163-1.794 2.27-4.99 3.22l10.845 13.914h-7.13l-9.678-13.18h-1.988v13.18zm31.931 0v-27.094c-2.531.05-5.198.233-9.246.736l.345-4.494h23.721l.347 4.494c-5.103-.635-7.864-.708-9.29-.736v27.094zm19.185-30.853h5.876v30.852h-5.876zm11.925 30.853V307.33h3.196l18.452 20.956V307.33h4.364v30.852h-3.241l-18.407-21.001v21z"/><path d="M907.961 271.233c-1.993-3.526-5.912-5.548-10.75-5.548H593.746c-5.121 0-12.86 0-20.907 8.045-2.634 2.635-4.098 5.253-5.387 7.562-2.498 4.467-4.302 7.694-12.6 7.694h-44.217c-8.298 0-10.102-3.227-12.599-7.694-1.29-2.31-2.754-4.927-5.388-7.562-8.046-8.045-15.786-8.045-20.908-8.045H168.274c-4.838 0-8.757 2.022-10.751 5.549-1.99 3.517-1.736 8.015.679 12.031l5.47 9.12c2.945 5.043 6.83 5.824 9.669 6.394 2.577.518 4.133.83 6.125 4.317l4.81 8.463c3.73 6.923 8.225 7.774 11.507 8.395 2.529.473 4.913.69 8.12 6.525 3.126 5.693 7.851 14.295 19.312 17.71l113.221 33.017c11.787 3.821 14.882 8.172 18.565 13.62 2.185 3.227 7.989 11.8 22.383 15.675l107.662 29.092c11.517 3.106 18.802-2.53 22.157-5.496l19.527-18.49c2.684-2.54 4.369-3.531 6.01-3.531 1.643 0 3.327.99 6.012 3.532l19.531 18.49c3.381 2.989 10.67 8.591 22.156 5.495L688.1 406.5c14.394-3.875 20.199-12.448 22.383-15.676 3.66-5.377 6.68-9.766 18.563-13.619L842.27 344.19c11.461-3.415 16.187-12.017 19.313-17.71 3.068-5.587 5.367-6.014 7.802-6.466 3.238-.606 7.963-1.288 11.822-8.452l4.812-8.465c1.992-3.487 3.548-3.799 6.125-4.317 2.839-.57 6.722-1.35 9.668-6.394l5.471-9.12c2.414-4.016 2.668-8.514.678-12.032M700.694 296.18v53.153H364.787V296.18zM580.218 427.43c-8.29 0-11.153-7.102-13.258-12.683-2.396-6.355-15.714-48.146-19.387-59.626h16.554c9.017 15.139 25.279 42.324 32.385 53.462 1.266 1.983 4.86 8.156 11.407 11.932-25.528 6.898-24.884 6.915-27.701 6.915m39.182-10.72c-9.28 0-14.153-7.17-17.115-11.812-6.084-9.526-19.857-32.454-30.188-49.777h18.392c11.596 12.33 36.142 38.357 45.79 48.005 1.456 1.457 4.576 4.771 9.08 7.272-22.37 6.045-22.474 6.312-25.96 6.312m37.613-10.026c-7.23 0-12.289-4.795-15.892-8.4-8.496-8.497-28.686-29.847-41.227-43.163h20.118c12.797 9.407 42.323 31.045 53.914 38.967 2.137 1.46 6.319 4.03 11.23 5.556-25.957 7.02-25.4 7.04-28.143 7.04m47.35-20c-3.331 4.928-5.782 7.368-11.401 7.368-5.167 0-10.754-2.6-15.172-5.619-9.614-6.57-31.736-22.704-46.205-33.312h23.94c29.346 14.659 41.67 21.194 50.1 23.65a31 31 0 0 0 4.22.938c-2.185 2.213-3.742 4.45-5.481 6.976m8.912-13.566c-6.715 0-15.438-4.439-42.452-17.997h26.173l36.687 9.362c2.499.652 4.804 1.2 6.944 1.651-20.554 5.995-23.674 6.984-27.352 6.984m71.719-19.922c-21.695 6.334-25.204 7.711-31.338 7.711-4.089 0-9.475-.765-18.253-3.053l-.017-.004-28.904-7.377v-10.327zm22.405-6.533c-6.92 1.727-13.348 1.155-23.514-.594l-.02-.003-77.383-12.863v-8.224l126.532 14.214zm47.709-23.74c-.978 1.78-1.958 3.488-3.037 5.078-4.405 5.975-7.13 5.665-20.69 4.116l-124.899-14.03v-7.747l144.03 8.442c1.095.062 3.997.256 6.96.439a31 31 0 0 0-2.364 3.702m24.495-23.49c-.024.043-2.66 4.682-4.023 7.078-4.177 6.786-6.273 6.68-18.487 5.833l-150.61-8.864v-6.241h174.544a22 22 0 0 0-1.424 2.194m21.347-19.974-3.953 6.591c-2.763 4.34-3.849 4.34-13.182 4.34H570.26c3.36-3.826 4.208-7.838 7.802-11.434 5.905-5.903 11.009-5.882 15.684-5.882h303.467c2.099 0 3.674.655 4.318 1.797.662 1.17.445 2.885-.58 4.588M500.83 425.776c1.307-1.919 2.52-4.417 4.103-8.613 2.459-6.522 16.249-49.793 20.17-62.043h15.28c3.92 12.25 17.71 55.52 20.17 62.043 1.582 4.197 2.796 6.695 4.102 8.613q-.693-.524-1.39-1.136l-19.43-18.398c-3.047-2.884-6.5-5.554-11.091-5.554-4.592 0-8.043 2.67-11.09 5.554l-19.435 18.4q-.696.609-1.39 1.134m-43.265-5.262c6.547-3.776 10.142-9.949 11.408-11.932 7.106-11.138 23.368-38.323 32.385-53.462h16.554c-3.673 11.48-16.991 53.271-19.388 59.626-2.104 5.581-4.967 12.683-13.257 12.683-2.817 0-2.174-.017-27.702-6.915m-37.44-10.117c4.505-2.5 7.625-5.815 9.081-7.272 9.648-9.648 34.194-35.674 45.79-48.005h18.391c-10.33 17.323-24.104 40.251-30.188 49.777-2.961 4.642-7.834 11.812-17.114 11.812-3.485 0-3.59-.267-25.96-6.312m-39.797-10.754c4.912-1.526 9.094-4.095 11.231-5.556 11.591-7.922 41.117-29.56 53.914-38.967h20.118c-12.54 13.316-32.732 34.666-41.228 43.162-3.603 3.606-8.662 8.4-15.891 8.4-2.743 0-2.187-.02-28.144-7.04m-24.688-19.935a31 31 0 0 0 4.22-.939c8.43-2.455 20.753-8.99 50.1-23.65h23.94c-14.47 10.61-36.592 26.743-46.205 33.313-4.418 3.02-10.005 5.619-15.172 5.619-5.62 0-8.07-2.44-11.402-7.367-1.74-2.525-3.296-4.763-5.481-6.976m-30.782-13.575c2.14-.45 4.445-1 6.944-1.65l36.686-9.363h26.174c-27.014 13.558-35.737 17.997-42.452 17.997-3.678 0-6.798-.99-27.352-6.984m34.144-25.988v10.327l-28.904 7.377-.017.004c-8.778 2.288-14.163 3.053-18.252 3.053-6.135 0-9.643-1.377-31.338-7.71zm-126.531-.953 126.531-14.214v8.224l-77.383 12.863-.019.003c-10.166 1.749-16.594 2.32-23.514.594zm-24.458-19.972c2.962-.183 5.865-.377 6.959-.439l144.03-8.442v7.747l-124.898 14.03c-13.56 1.55-16.285 1.86-20.69-4.116-1.079-1.59-2.06-3.298-3.037-5.078a31 31 0 0 0-2.364-3.702m-23.556-21.982h174.545v6.241l-150.61 8.864c-12.214.846-14.31.953-18.488-5.833l-4.022-7.078a22 22 0 0 0-1.425-2.194m-20.503-22.368c.645-1.142 2.22-1.797 4.32-1.797H471.74c4.675 0 9.778-.021 15.683 5.882 3.595 3.596 4.443 7.608 7.802 11.434H181.67c-9.332 0-10.419 0-13.182-4.34l-3.953-6.591c-1.024-1.703-1.241-3.418-.58-4.588m838.012 80.598c0 67.781.462 68.34 3.074 157.036h.575c2.61-88.686 3.105-93.88 3.105-161.46 0-24.99-.075-91.247-3.105-194.173h-.576c-2.085 70.864-3.073 102.416-3.073 198.597m-72.039 232.499h-5.184L893.187 658.8h12.064c1.237-4.213 2.619-9.035 6.873-19.786h25.747c3.146 7.695 5.583 14.606 7.436 19.786h15.054zm-4.89 20.542c7.636 17.566 7.737 17.658 9.54 22.266h-18.995c2.002-4.64 2.036-4.752 9.454-22.266m485.833-20.542h-5.185l-31.558 70.834h12.064c1.238-4.213 2.62-9.035 6.874-19.786h25.747c3.146 7.695 5.583 14.606 7.435 19.786h15.055zm-4.892 20.542c7.636 17.566 7.738 17.658 9.54 22.266h-18.995c2.002-4.64 2.037-4.752 9.455-22.266M748.89 658.8c-1.814-22.028-3.118-35.226-4.103-43.953-11.894 21.417-17.07 31.878-21.875 42.932h-3.985c-12.026-24.567-13.292-26.95-16.066-32.169a798 798 0 0 1-5.43-10.37c-.513 4.366-2.693 23.785-4.123 43.56h-10.856c3.448-24.906 8.887-66.98 9.201-69.418h6.44l2.844 5.684c7.955 15.9 14.237 28.456 21.856 41.484l.11.187.105-.191c3.444-6.297 6.561-12.175 9.577-17.86 4.675-8.808 9.506-17.918 15.917-29.304h5.785c.253 2.203 4.19 36.506 8.26 69.418zm763.8 0c-1.816-22.028-3.119-35.226-4.104-43.953-11.893 21.417-17.07 31.878-21.874 42.932h-3.985c-12.026-24.567-13.292-26.95-16.066-32.169a815 815 0 0 1-5.432-10.37c-.511 4.366-2.693 23.785-4.12 43.56h-10.858c3.449-24.906 8.888-66.98 9.202-69.418h6.44l2.844 5.684c7.955 15.9 14.237 28.456 21.856 41.484l.11.187.105-.191c3.444-6.297 6.561-12.175 9.577-17.86 4.674-8.808 9.506-17.918 15.916-29.304h5.786c.253 2.203 4.19 36.506 8.26 69.418zm-940.851 2.373c-14.495 0-22.984-7.684-25.065-9.654-5.895-5.573-10.997-14.506-10.997-27.427 0-12.93 5.11-21.861 10.997-27.427 2.08-1.967 10.566-9.654 25.065-9.654 8.769 0 25.7 3.656 33.063 21.287 1.989 4.763 2.999 10.077 2.999 15.794 0 12.93-5.11 21.862-10.997 27.427-2.08 1.968-10.566 9.654-25.065 9.654m.029-8.261c10.759 0 21.652-9.9 21.652-28.82s-10.893-28.82-21.652-28.82h-.058c-10.761 0-21.652 9.9-21.652 28.82s10.893 28.82 21.652 28.82zm458.595 8.261c-14.495 0-22.985-7.684-25.065-9.654-5.895-5.573-10.997-14.506-10.997-27.427 0-12.93 5.11-21.861 10.997-27.427 2.08-1.967 10.566-9.654 25.065-9.654 8.768 0 25.7 3.656 33.063 21.287 1.989 4.763 2.998 10.077 2.998 15.794 0 12.93-5.11 21.862-10.996 27.427-2.081 1.968-10.566 9.654-25.065 9.654m.029-8.261c10.76 0 21.652-9.9 21.652-28.82s-10.891-28.82-21.652-28.82h-.058c-10.76 0-21.653 9.9-21.653 28.82s10.894 28.82 21.653 28.82zm-410.25-63.61c3.778-.247 19.572-.408 19.729-.41 11.884 0 16.532 2.324 20.547 6.337 3.748 3.748 5.73 8.668 5.587 13.852-.136 4.88-2.182 9.646-5.615 13.077-3.696 3.698-8.194 5.368-9.846 5.968l26.103 30.659-15.9.008-23.518-28.989-4.25-.042.028 29.021-12.869.013zm18.093 7.211c-1.603 0-3.343.134-5.169.398l-.107.016v24.522l.101.02c1.85.335 3.63.505 5.288.505 10.412 0 15.154-6.663 15.154-12.853v-.015c.004-.84-.147-5.196-3.508-8.572-2.657-2.668-6.613-4.021-11.759-4.021m210.593 62.277v-69.437h12.884v60.233l28.69.006-.006 9.198zm283.442.01c-2.958-3.692-23.61-26.507-43.39-48.428V658.8h-10.039v-69.418h7.09l42.706 46.271v-46.27h9.98V658.8zm151.809.003v-60.015c-10.861.105-17.565.904-21.914 1.376V589.38h55.753v10.82c-3.277-.402-9.5-1.27-20.954-1.41v60.013zm-117.04-9.228V627.21h24.789v-8.445h-24.79v-20.479c5.812 0 14.151-.019 28.28.866v-9.8h-41.165v69.425h42.307v-10.2c-9.334.54-20.095.998-29.421.998m172.795 0V627.21h24.79v-8.445h-24.79v-20.479c5.811 0 14.15-.019 28.28.866v-9.8h-41.166v69.425h42.308v-10.2c-9.334.54-20.096.998-29.422.998m-517.771-60.222c.47 26.693.245 37.242.245 37.242 0 8.677-.525 24.302-17.319 24.302-5.944 0-17.838-.983-17.838-20.766 0-17.934.44-39.966.458-40.778h-13.532c0 .876.022 21.126.022 40.72 0 28.46 22.922 29.671 28.63 29.671 16.428 0 29.285-7.489 29.618-30.216l.096-40.175zm-294.417 9.895v-9.896h-42.23v69.438H498.4v-29.826h26.172v-9.083H498.4v-21.58c12.972 0 20.532.368 29.345.947m680.485-7.164h-5.31v-2.763h14.075v2.763h-5.363v15.31h-3.402zm27.12 7.936c-.11-2.333-.248-5.147-.222-7.588h-.082a95 95 0 0 1-2.211 6.918l-2.71 7.83h-2.733l-2.488-7.723a89 89 0 0 1-1.88-7.025h-.055c-.083 2.36-.194 5.228-.332 7.695l-.415 7.267h-3.18l1.245-18.073h4.513l2.434 7.267a89 89 0 0 1 1.715 6.275h.082a86 86 0 0 1 1.853-6.302l2.571-7.24h4.495l1.078 18.073h-3.318z"/></svg>