<svg xmlns="http://www.w3.org/2000/svg" viewBox="0 0 2659.892 1365.088" width="2500" height="1284"><path d="M1327.239 665.826c-145.974-22.843-439.39-81.951-568.303-112.517-99.787-23.737-111.474-56.308-123.543-111.823l-.466-2.15c-3.703-16.996-34.997-185.71-47.994-256.669L457.547 0h1744.637l-129.386 182.667c-12.319 67.266-44.286 239.525-47.99 256.65l-.469 2.169c-12.068 55.515-23.756 88.086-123.533 111.82-128.55 30.483-421.984 89.57-568.505 112.52l-2.533.396z" fill="#fff"/><path d="m2170.552 16.358-113.198 159.804c-12.414 67.866-44.853 242.679-48.535 259.694-10.652 48.928-15.76 78.687-111.799 101.538-127.865 30.316-420.334 89.258-567.251 112.272-146.864-22.986-439.192-81.956-567.056-112.272-96.04-22.851-101.144-52.61-111.801-101.538-3.68-16.904-36.124-191.827-48.537-259.694L489.184 16.358z"/><path d="M2081.29 46.4H578.555l89.262 127.45c22.313 132.55 36.12 217.766 41.84 247.476 9.93 51.686 11.686 73.974 65.078 88.367 106.163 25.104 413.835 88.368 555.23 109.706 141.393-21.338 449.093-84.517 555.314-109.706 53.386-14.393 55.144-36.68 65.073-88.368 5.583-29.709 19.526-114.926 41.846-247.475z" fill="#fff"/><path d="M856.547 303.723H712.224l-11.156-66.136h619.69v66.136h-16.735v-50.628h-452.72zm-157.992-81.228h622.036v-48.477H690.493zm389.065 162.65h233.053V350.42h-232.969zM684.414 158.59h147.42l-27.895-48.507h500.113v48.31h16.734V93.318H638.75zm889.818-65.271h-235.117v97.434h235.228zM745.78 469.022c3.821 5.801 10.905 12.554 34.422 18.94 11.38 2.792 24.045 5.582 41.562 9.485h249.565v-34.393H742.544a36 36 0 0 0 3.181 5.968zm-14.255-52.552h339.806v-97.156H714.82zm356.095 136.291c87.03 17.124 172.107 32.94 233.194 42.51v-163.04H1087.62zm502.735-249.038h357.266l16.319-97.464h-373.585zm0-179.415v34.59l384.265-.141 24.1-34.45zm-251.241 260.837h16.734v-49.067h444.576c-.587 4.771-4.741 37.659-6.889 49.204h140.39l11.157-65.968h-605.968zm0 63.543H1922.1l9.424-48.284h-592.41zm235.23-211.073h-235.23v34.782h235.23zm-103.432 317.459c-23.236 4.437-88.397 15.79-115.062 20.616v-95.93h411.968c-19.724 23.207-60.309 30.1-296.906 75.314m-131.799-92.02v132.162c148.204-24.24 435.984-81.31 540.698-107.364 23.655-5.886 30.656-13.028 34.477-18.83a30.3 30.3 0 0 0 3.126-5.968zM74.102 1082.02q-36.032-14.487-55.066-40.187C6.341 1024.703 0 1005.129 0 983.116s6.341-41.587 19.036-58.72q19.034-25.699 55.066-40.184 36.028-14.484 85.114-14.485c55.798 0 102.785 13.501 140.966 40.494v7.477l-15.103 18.38c-36.08-26.37-78.035-39.561-125.863-39.561q-39.021 0-67.65 10.279-28.638 10.279-44.053 29.906c-10.28 13.081-15.419 28.556-15.419 46.414s5.138 33.33 15.419 46.416q15.415 19.623 44.052 29.903 28.63 10.279 67.652 10.28c23.913 0 45.885-3.319 65.92-9.968q30.045-9.965 59.63-30.215l15.415 18.379v7.473q-28.32 19.94-62.459 30.528c-22.763 7.059-48.929 10.593-78.507 10.593q-49.086 0-85.114-14.485m827.936-16.666c45.515 0 79.135-6.54 100.846-19.626q32.567-19.623 32.567-62.612c0-42.989-10.855-49.53-32.567-62.615-21.71-13.081-55.33-19.623-100.847-19.623H817.08v164.476zm-116.425 26.79V874.085H908.33c52.652 0 92.353 9.142 119.1 27.413 26.744 18.277 40.116 45.48 40.116 81.617s-13.372 63.344-40.117 81.614c-26.746 18.279-66.447 27.413-119.099 27.413zm406.799 0h-31.465V874.087h31.465zm148.445-218.058v191.268h228.37l-20.697 26.79h-239.14V874.086zm339.663 0v191.268h228.37l-20.698 26.79h-239.137V874.086zm444.273 26.17-70.798 109.65h157.147l-70.797-109.65zm-16.36-26.17h48.275l140.34 210.58v7.478h-32.729l-35.87-55.447h-191.761l-35.87 55.447h-32.724v-7.478zM529.35 900.256l-70.797 109.65H615.7l-70.798-109.65zm-16.359-26.17h48.275l140.339 210.58v7.478h-32.728l-35.871-55.447h-191.76l-35.87 55.447h-32.724v-7.478zm1920.822 207.934c-24.025-9.659-42.377-23.053-55.067-40.187q-19.039-25.696-19.037-58.717c.002-33.021 6.343-41.587 19.037-58.72 12.69-17.133 31.042-30.527 55.067-40.184q36.022-14.484 85.114-14.485c55.795 0 102.783 13.501 140.965 40.494v7.477l-15.105 18.38c-36.08-26.37-78.032-39.561-125.86-39.561q-39.025 0-67.65 10.279c-19.092 6.854-33.78 16.82-44.053 29.906-10.282 13.081-15.421 28.556-15.421 46.414s5.14 33.33 15.42 46.416c10.274 13.082 24.963 23.051 44.053 29.904 19.084 6.85 41.634 10.28 67.651 10.28 23.913 0 45.885-3.32 65.92-9.97 20.028-6.642 39.907-16.714 59.627-30.214l15.418 18.379v7.473q-28.321 19.94-62.459 30.529c-22.764 7.058-48.93 10.592-78.506 10.592q-49.092 0-85.114-14.485M161.11 1256.445H35.164v36.676h104.838v14.878H35.165v54.668h-17.3v-121.1h137.708zm79.407 100.685q-19.724-7.956-29.756-22.23-10.034-14.271-10.034-32.783c0-18.512 3.344-23.269 10.034-32.784q10.033-14.272 29.756-22.231 19.722-7.956 47.748-7.958c28.026-.002 34.6 2.655 47.748 7.958q19.721 7.96 29.756 22.23 10.032 14.274 10.034 32.785c.002 18.51-3.347 23.268-10.034 32.783q-10.035 14.274-29.756 22.23-19.722 7.96-47.748 7.958c-28.026-.002-34.6-2.651-47.748-7.958m99.561-19.548q18.078-12.629 18.079-35.465c.001-22.836-6.028-27.045-18.079-35.465q-18.079-12.628-51.813-12.629c-33.734 0-39.763 4.211-51.814 12.629q-18.079 12.629-18.078 35.465c0 22.836 6.025 27.047 18.078 35.465q18.078 12.629 51.814 12.628c33.736 0 39.76-4.209 51.813-12.628m90.219 25.085v-121.1H533.75q25.257 0 37.368 8.304 12.108 8.304 12.11 24.739c.002 16.435-4.039 19.203-12.11 24.738q-12.111 8.305-37.368 8.305h-7.612v4.151l12.802 2.077 41.693 44.633v4.153h-17.82l-49.823-55.014h-65.394v55.014zm106.049-69.892q15.222.002 22.403-4.24 7.179-4.235 7.18-13.925c.001-9.69-2.395-11.1-7.18-13.927q-7.182-4.238-22.403-4.238h-88.749v36.33zm120.752 69.892h-17.3v-121.1h23.874l68.854 104.318h4.152l68.854-104.318h23.874v121.1h-17.3v-96.189h-4.152l-63.664 96.189h-19.376l-63.664-96.189h-4.152zm251.714-13.927q-19.722-16.348-19.722-49.218v-57.955h17.3v60.203q0 24.224 16.002 36.33 16 12.11 43.856 12.11c27.856 0 33.186-4.036 43.855-12.11q16.002-12.106 16.003-36.33v-60.203h17.3v57.955q0 32.871-19.722 49.218-19.723 16.349-57.436 16.348c-37.713 0-44.288-5.449-57.436-16.348m211.578-107.173v106.222h120.062l-5.882 14.878h-131.48v-121.1zm240.642 0h22.144l77.158 116.947v4.153h-17.992l-19.722-30.794h-101.032l-19.722 30.794h-17.992v-4.153zm8.996 14.531-38.925 60.897h82.002l-38.925-60.897zm293.579 106.569H1647v-103.109h-3.46l-49.65 28.027-6.575-9.515v-3.46l59.685-33.043h16.608zm318.491-121.1 5.537 14.878h-71.968v106.222h-17.3v-106.222h-71.968l5.535-14.878zm74.909 66.432v39.79h130.442l-5.536 14.877h-142.206v-121.1h140.475l5.537 14.879h-128.712v36.676h104.492v14.877zm251.712-66.432h22.143l77.158 116.947v4.153h-17.992l-19.722-30.794h-101.032l-19.722 30.794h-17.992v-4.153zm8.996 14.531-38.925 60.897h82.002l-38.925-60.897zm155.873 106.569h-17.3v-121.1h23.874l68.853 104.318h4.153l68.853-104.318h23.874v121.1h-17.3v-96.189h-4.152l-63.663 96.189h-19.376l-63.664-96.189h-4.152z"/></svg>