<svg height="1139" viewBox="170 81 17381 8837" width="2500" xmlns="http://www.w3.org/2000/svg"><path d="m5148 8885c-144-53-219-237-175-425 38-156 173-249 326-222 170 30 261 187 231 398-12 88-37 136-103 197-67 61-190 85-279 52zm197-126c48-45 65-94 65-191 0-49-4-96-9-106-5-9-14-29-21-44s-30-39-51-53c-78-51-169-23-223 69-22 38-26 56-26 126 0 88 24 153 72 196 33 30 46 34 110 31 43-3 62-9 83-28zm3181 125c-51-18-90-58-114-119-18-44-21-79-25-282l-5-233h126l4 241 3 241 33 29c27 24 41 29 84 29 47 0 54-3 90-40l38-41v-457l26-6c15-4 39-4 54-1 27 6 27 7 34 107 7 94 3 242-10 366-8 76-64 145-136 167-63 18-150 18-202-1zm1009 7-40-6-3-324-2-324 46 7c26 3 53 6 60 6 12 0 14 46 14 253 0 141 4 259 10 267 7 12 38 16 132 20l123 5 3 29c2 15 1 39-2 52l-6 24-148-1c-81-1-165-5-187-8zm4423 2c-13-3-18-16-19-46-1-23-4-143-8-267l-6-225h-140l-6-33c-3-18-4-45-1-59l5-26 135 7c74 3 173 6 219 6h83v105l-64 1c-105 2-96-22-96 272v260l-31 6c-34 6-44 6-71-1zm1833-2c-9-6-11-20-6-50 4-22 10-41 14-41 5 0 16-30 26-67 10-38 21-72 25-78 5-5 16-37 25-70 10-33 21-64 25-70 4-5 15-35 24-65s22-68 30-85c7-16 20-50 27-75l14-45 58-3 57-3 19 44c11 24 27 71 37 103 10 33 21 61 25 64s15 34 25 70c9 36 20 67 24 70 3 3 12 25 19 50s19 59 26 75c21 47 53 163 47 169-3 4-26 6-51 6-44 0-47-2-69-42-12-24-22-48-22-55 0-6-7-19-16-27-12-13-39-16-123-16-120 0-120 0-140 68-7 24-20 52-29 63-17 20-66 26-91 10zm331-291c-2-19-10-48-17-65-7-16-19-47-25-67-6-21-16-38-21-38-14 0-35 40-49 93-7 26-17 50-21 53-11 6-12 48-2 58 4 4 37 6 73 4l65-3zm-9961 283-34-4 5-310c2-169 8-312 12-316 4-5 76-7 159-7l152 1 51 32c43 26 56 41 78 92 14 33 26 70 26 82 0 43-34 113-78 159l-45 47 28 53c15 29 36 68 46 87 10 18 26 42 35 52 22 24 15 30-39 36-57 7-80-7-113-65-15-26-42-71-61-100-33-52-35-53-76-50l-42 3-3 103c-2 92-4 102-22 102-10 0-24 2-32 3-7 2-28 2-47 0zm288-340c27-24 31-34 31-80 0-53-9-69-55-99-12-8-33-12-46-10-13 3-45 5-71 5l-48 1v98c0 54 3 102 7 105 3 4 39 7 79 7 64 0 75-3 103-27zm766 341c-6-2-9-116-7-319l3-315h58c61 0 82 12 95 57 4 13 13 29 19 35 7 7 22 33 34 58 30 61 67 105 81 96 6-4 20-26 32-49 11-23 36-69 55-102s38-68 41-77c5-15 19-18 75-18h69l-2 318-3 317h-100l-5-182c-7-261-18-263-142-25-12 23-25 42-30 42-7 0-62-91-99-163-23-45-57-74-64-56-3 8-6 97-7 199l-3 185-45 2c-25 1-49 0-55-3zm3225-7c0-7 9-32 20-55 11-22 20-49 20-59s6-29 13-43 21-52 31-85 22-64 26-70c4-5 16-39 26-75 9-36 23-74 29-85 7-11 18-42 25-70 22-81 35-95 90-95 42 0 51 4 68 28 10 15 25 50 32 77 7 28 21 68 31 91 11 22 19 47 19 55s7 27 15 42 23 56 34 90 34 100 51 147 34 93 37 103c5 15-2 17-50 17-61 0-68-6-87-65-22-71-30-75-149-75-117 0-133 7-147 67-13 58-30 73-84 73-35 0-50-4-50-13zm350-254c0-48-52-193-68-193-10 0-38 56-53 105-6 22-15 50-20 61-12 33 8 44 78 44 53 0 63-3 63-17zm1584 256c-4-7-10-122-13-258l-6-246-46 3c-44 3-47 1-52-25-13-67-13-66 23-77 19-6 41-15 49-20 7-5 42-11 77-14l64-5v653h-44c-25 0-48-5-52-11zm2423 5c-4-4-7-148-7-321v-313h410v45c0 28-5 47-12 50-13 3-189 15-240 15-28 0-28 0-28 69v68l106 7c151 10 144 6 144 74v42h-250v169l143 3 142 3v90l-201 3c-110 1-203-1-207-4zm2129-46c-3-29-6-173-6-319v-267l36-6c75-15 88-4 154 115 33 60 60 114 60 120s12 9 26 7c21-2 34-17 63-72 20-39 41-76 48-83 6-7 17-28 24-47 13-36 38-46 117-46h32l-2 323-3 322h-100l-5-180c-3-104-10-188-16-199-11-18-12-17-28 5-9 13-16 28-16 33s-7 17-16 27c-17 19-42 62-69 117-8 17-19 32-23 32s-18-19-30-42c-23-44-29-55-72-123-55-87-64-65-68 158l-4 177h-95zm-12906-273v-315h194c188 0 194 1 199 21 3 11 3 35 0 52l-5 32-121-3c-171-5-167-6-167 76 0 40 5 73 12 80s31 12 53 12c23 0 76 3 118 6l77 7v84l-52 7c-29 3-85 6-124 6-56 0-73 3-78 16-3 9-6 65-6 125v109h-100zm-3839-1794c-11-7-7-13 15-27 16-11 36-26 45-34 8-8 31-27 50-42 56-44 172-137 195-156 22-18 48-38 124-97 25-20 57-46 72-58s37-30 50-39c31-23 190-150 248-198 14-12 50-40 80-63s60-46 66-52c7-5 25-20 40-32 16-12 115-91 221-175 105-84 280-223 388-308 107-85 206-164 219-175s47-36 75-55 57-40 64-46c7-5 32-18 57-28s50-22 55-26c6-5 42-16 80-25 56-12 120-15 319-13l248 3v360c0 198 2 402 5 453 6 98 14 109 52 74 10-9 68-57 130-107 61-49 111-93 111-97s4-8 9-8c9 0 468-375 545-446 60-54 194-146 260-178 97-47 158-55 417-56h236l6 293c12 512 9 1341-5 1355s-654 17-675 4c-10-6-13-119-15-486-3-423-5-480-19-489-11-7-22-4-40 14-14 13-90 78-169 144s-156 131-171 145-41 35-56 47c-46 36-229 189-250 209-11 11-31 28-44 39-94 77-219 182-249 209-8 7-59 50-114 95l-98 81h-264c-199 0-265-3-271-12-4-7-10-223-13-480-4-341-8-470-17-479-17-17-54 8-249 167-93 77-186 152-207 168-21 15-52 40-67 55-16 14-42 36-57 48s-48 38-73 58c-42 33-62 49-123 100-13 11-37 30-53 43-16 12-63 50-105 85-147 121-224 182-265 215l-43 32h-378c-208 0-384-4-392-9zm5384 2c-97-6-320-49-350-68-11-6-31-15-45-18-43-11-147-94-190-152-23-31-48-78-56-103-9-26-20-55-25-65-16-29-28-293-20-427 14-221 84-362 229-461 24-16 45-29 48-29s30-12 60-26c85-40 221-66 399-74 191-9 1340-12 1373-4 22 6 22 8 22 184v177l-277 6c-153 4-433 7-623 8-190 0-366 4-391 8s-56 17-69 29-26 22-29 22-17 16-29 35c-24 34-49 167-47 245 2 61 16 164 27 200 11 38 76 105 117 123 17 7 246 12 674 15l647 4-2 187-3 186-695 1c-382 0-717-1-745-3zm1682 0c-11-18-19-888-12-1255l7-397 334-3 334-3 2 632c2 347 7 635 11 640 5 4 186 9 402 11l393 3 7 96c7 89 0 257-11 275-7 10-1461 11-1467 1zm8311 0-228-3v-1430l673 1c714 1 959 8 1072 32 129 27 140 30 160 43 11 6 31 15 45 19 67 20 161 104 207 186 57 99 64 171 63 691l-1 458-22 5c-12 3-161 4-332 3l-310-3-5-450-5-450-26-42c-35-58-90-93-163-104-34-5-198-8-366-7l-305 3-5 520-5 520-40 7c-22 4-71 6-110 5-38-1-172-3-297-4zm-6213-18c-136-18-198-33-257-60-67-31-142-96-162-142-10-21-22-48-29-61-6-13-11-75-10-150 0-117 2-132 28-187 34-73 104-145 165-169 25-10 50-21 55-26 28-22 165-29 725-35 396-4 609-10 617-17 16-13 17-108 2-142-25-53-48-55-827-58-442-2-616-6-623-14-5-7-8-85-7-180l3-169 740-3c758-2 839 1 1001 38 115 26 190 66 268 145 50 49 68 77 94 142l32 80v336c0 185-4 338-9 341-4 3-14 25-20 49-13 46-66 118-118 162-63 51-147 83-289 110-137 25-138 25-708 24-413-1-599-5-671-14zm1101-373c35-28 44-56 44-136v-76h-917l-26 26c-47 47-44 168 5 192 16 7 164 11 448 11 388 1 427-1 446-17zm960 351c-4-21-9-251-12-510-6-426-5-482 11-563 25-128 72-192 184-250 111-58 214-68 714-69l407-1v379l-295 3c-287 3-295 4-316 25-13 12-25 42-30 70-4 26-8 252-8 501l-1 452h-648zm1913 17c-129-25-179-39-179-50 0-6-7-10-15-10-19 0-69-25-96-48-88-77-132-139-154-220-9-31-21-66-26-77-6-12-8-127-6-285 3-292 13-354 72-455 61-104 177-187 300-216 28-6 75-19 105-28 48-14 133-16 670-16 450 0 630 3 670 12 30 7 91 19 135 28 102 19 167 51 230 112 76 72 89 107 93 242 4 132-4 215-22 234-8 7-16 23-20 35-10 31-93 101-146 124-25 11-54 23-65 28-50 23-224 30-766 30h-577l-7 30c-11 52 4 125 32 152l25 23 546 6c301 4 625 7 720 8l172 1v360l-797-1c-729-1-806-3-894-19zm1121-815c40-21 50-43 50-110 0-51-3-60-32-87l-32-29-420 3c-460 4-466 4-486 61-5 16-10 60-10 98 0 62 2 68 23 72 12 2 215 5 450 6 364 1 432-1 457-14z"/><path d="m10533 4478c297-402 581-880 672-1131 61-171 70-218 70-382-1-137-3-156-27-217-40-106-86-176-178-269-226-228-598-377-1080-431-173-20-724-17-930 5-149 15-213 23-470 56-41 6-100 15-130 20s-98 17-150 26c-275 47-712 134-1005 200-38 8-101 22-140 30-38 8-97 21-130 29s-94 22-135 31-100 23-130 30c-177 41-249 57-475 104-212 44-277 58-297 66-10 4-18 3-18-2 0-7 74-49 415-234 71-38 592-299 598-299 3 0 56-24 118-54 63-29 141-66 174-80 63-29 281-126 350-157 22-9 87-39 145-67 146-68 241-112 245-112 2 0 41-17 87-39 104-48 388-170 533-228 61-24 124-50 140-57 17-8 53-22 80-31 28-10 55-22 60-25 6-4 21-11 35-15s48-18 75-31c85-39 374-159 670-278 77-31 149-61 160-66 39-18 354-139 560-215 116-42 219-81 230-86 20-8 428-144 520-172 88-28 229-69 280-82 241-63 345-87 465-110 47-9 103-20 125-25 45-11 135-24 305-46 423-53 866-42 1195 30 80 17 241 62 270 75 11 5 57 25 102 44 100 42 258 146 339 224 173 166 231 299 221 513-6 137-35 235-128 430-52 108-176 310-230 374-9 12-54 68-100 126-136 171-496 522-734 715-27 22-65 54-84 71-20 17-117 95-216 175-99 79-182 146-185 149s-36 30-75 60c-38 30-72 57-75 60s-36 30-75 60c-38 30-72 57-75 61-9 10-360 272-450 334-299 210-449 307-870 562-341 207-444 266-575 329-170 81-168 82-72-48z" fill="#fc390d"/></svg>